<?xml version="1.0" encoding="UTF-8" standalone="no"?>
<svg
   width="372.79"
   height="560.116"
   viewBox="0 0 372.78964 560.11573"
   version="1.1"
   id="svg21"
   sodipodi:docname="SBC2.svg"
   inkscape:version="1.2.2 (b0a84865, 2022-12-01)"
   xmlns:inkscape="http://www.inkscape.org/namespaces/inkscape"
   xmlns:sodipodi="http://sodipodi.sourceforge.net/DTD/sodipodi-0.dtd"
   xmlns="http://www.w3.org/2000/svg"
   xmlns:svg="http://www.w3.org/2000/svg">
  <sodipodi:namedview
     id="namedview23"
     pagecolor="#ffffff"
     bordercolor="#000000"
     borderopacity="0.25"
     inkscape:showpageshadow="2"
     inkscape:pageopacity="0.0"
     inkscape:pagecheckerboard="0"
     inkscape:deskcolor="#d1d1d1"
     showgrid="false"
     inkscape:zoom="3.2818435"
     inkscape:cx="166.21756"
     inkscape:cy="489.20676"
     inkscape:window-width="1920"
     inkscape:window-height="1027"
     inkscape:window-x="0"
     inkscape:window-y="25"
     inkscape:window-maximized="0"
     inkscape:current-layer="g19" />
  <defs
     id="defs5">
    <clipPath
       id="a">
      <path
         d="M0 595.28h841.89V0H0z"
         id="path2" />
    </clipPath>
  </defs>
  <g
     clip-path="url(#a)"
     transform="matrix(1.33333 0 0 -1.33333 -374.865 676.911)"
     id="g19">
    <path
       d="M281.153 352.29V149.374h250.61v145.543c-.943 9.888-2.888 18.91-5.695 27.118-42.022-46.518-181.081-54.925-244.915 30.255"
       fill="#2c8669"
       id="path7" />
    <path
       d="M544.773 357.477c-1.916 4.172-4.357 8.33-7.406 12.427-8.602 11.558-22.06 22.613-42.343 32.032-80.682 34.139-140.137-1.734-163.484-19.177-4.363-3.26-7.468-5.878-9.21-7.272 2.933 2.147 6.38 4.175 10.253 6.053 41.56 20.166 132.573 23.133 175.941-28.268 5.517-6.538 10.257-13.958 14.032-22.331a102.86 102.86 0 0 0 3.511-8.905c2.808-8.208 4.752-17.231 5.695-27.12a148.71 148.71 0 0 0 .636-16.588c-.399-3.983 31.16 38.215 12.375 79.149"
       fill="#d3d2d2"
       id="path9" />
    <path
       d="m 303.565,136.798 c -0.614,0.28 -1.307,0.553 -2.08,0.814 -0.771,0.262 -1.631,0.403 -2.578,0.42 -0.807,0 -1.465,-0.185 -1.974,-0.554 -0.553,-0.371 -0.828,-0.973 -0.828,-1.807 0,-0.416 0.136,-0.787 0.406,-1.113 a 4.6,4.6 0 0 1 0.988,-1.004 32.635,32.635 0 0 1 3.05,-1.805 12.6,12.6 0 0 0 3.037,-2.254 c 0.894,-0.904 1.355,-2.07 1.38,-3.5 -0.025,-1.783 -0.658,-3.136 -1.892,-4.058 -1.237,-0.934 -2.89,-1.4 -4.958,-1.4 -1.201,0.029 -2.275,0.15 -3.222,0.368 -0.955,0.225 -1.596,0.375 -1.92,0.448 v 3.365 c 0.58,-0.371 1.309,-0.762 2.187,-1.168 0.904,-0.453 1.93,-0.688 3.082,-0.705 1.219,0.017 2.08,0.316 2.58,0.894 0.448,0.536 0.672,1.127 0.672,1.78 -0.02,1.039 -0.474,1.89 -1.37,2.55 a 22.508,22.508 0 0 1 -3.041,1.928 13.425,13.425 0 0 0 -3.055,2.158 c -0.913,0.823 -1.38,1.9 -1.397,3.23 0.018,1.72 0.645,2.98 1.88,3.786 1.203,0.779 2.703,1.168 4.5,1.168 1.063,0 2.005,-0.068 2.829,-0.203 0.807,-0.127 1.382,-0.236 1.724,-0.326 z m 6.831,-9.346 c 0,-0.605 0.035,-1.187 0.105,-1.748 a 6.578,6.578 0 0 1 0.318,-1.518 c 0.184,-0.443 0.449,-0.796 0.793,-1.058 0.326,-0.28 0.749,-0.42 1.268,-0.42 0.537,0 0.979,0.14 1.323,0.42 0.325,0.262 0.572,0.615 0.739,1.058 0.177,0.461 0.3,0.967 0.37,1.518 a 27.3,27.3 0 0 1 0.054,1.748 c 0.017,1.301 -0.123,2.414 -0.424,3.336 a 2.43,2.43 0 0 1 -0.739,1.057 c -0.344,0.244 -0.786,0.365 -1.323,0.365 -0.519,0 -0.942,-0.12 -1.268,-0.365 a 2.515,2.515 0 0 1 -0.793,-1.057 c -0.301,-0.922 -0.442,-2.035 -0.423,-3.336 m 2.484,-6.914 c -3.755,0.082 -5.64,2.39 -5.658,6.922 0.018,4.541 1.903,6.847 5.658,6.922 3.755,-0.075 5.641,-2.38 5.659,-6.922 -0.018,-4.533 -1.904,-6.84 -5.659,-6.922 m 18.801,0.623 c -1.132,-0.389 -2.382,-0.596 -3.749,-0.623 -1.956,0 -3.583,0.598 -4.88,1.791 -1.308,1.168 -1.97,3.072 -1.986,5.715 -0.02,1.781 0.445,3.273 1.392,4.478 0.94,1.203 2.431,1.823 4.474,1.86 0.973,0 1.784,-0.127 2.434,-0.38 a 3.86,3.86 0 0 0 1.472,-1.089 c 0.202,-0.227 0.364,-0.459 0.487,-0.693 0.123,-0.282 0.223,-0.573 0.301,-0.87 0.124,-0.59 0.186,-1.193 0.186,-1.81 h -3.174 c 0,0.67 -0.114,1.28 -0.342,1.83 -0.272,0.543 -0.803,0.822 -1.594,0.84 -0.808,-0.018 -1.418,-0.36 -1.83,-1.029 -0.422,-0.688 -0.633,-1.55 -0.633,-2.59 0,-0.66 0.1,-1.332 0.302,-2.02 a 6.891,6.891 0 0 1 0.894,-1.912 4.992,4.992 0 0 1 1.631,-1.367 c 0.666,-0.389 1.485,-0.584 2.458,-0.584 0.842,0 1.56,0.113 2.157,0.34 z m 2.697,12.922 h 2.984 v -13.232 h -2.984 z m 0,5.943 h 2.984 v -3.039 h -2.984 z m 13.818,-9.892 c 0.019,0.463 -0.114,0.959 -0.396,1.488 a 1.942,1.942 0 0 1 -0.687,0.588 c -0.3,0.145 -0.695,0.219 -1.188,0.219 -0.87,-0.02 -1.498,-0.301 -1.886,-0.848 -0.371,-0.52 -0.576,-1.002 -0.612,-1.447 z m 2.506,-9.066 c -1.044,-0.354 -2.241,-0.53 -3.593,-0.53 -4.27,0.063 -6.424,2.606 -6.46,7.627 -0.016,1.883 0.413,3.389 1.29,4.52 0.886,1.113 2.289,1.678 4.21,1.697 3.245,-0.092 4.867,-1.875 4.867,-5.35 v -0.744 h -7.6 c 0,-0.463 0.089,-1.004 0.263,-1.62 0.098,-0.3 0.208,-0.608 0.33,-0.925 0.142,-0.291 0.305,-0.593 0.49,-0.912 a 4.78,4.78 0 0 1 1.477,-1.482 c 0.635,-0.428 1.392,-0.641 2.273,-0.641 1.023,0.037 1.84,0.205 2.453,0.504 z m 5.988,6.384 c 0,-0.498 0.034,-1.014 0.104,-1.549 0.053,-0.545 0.15,-1.039 0.292,-1.482 0.166,-0.444 0.39,-0.797 0.67,-1.06 a 1.596,1.596 0 0 1 1.135,-0.436 c 0.439,0 0.799,0.146 1.08,0.435 0.29,0.264 0.528,0.617 0.712,1.061 0.325,0.916 0.487,1.926 0.487,3.031 0,1.27 -0.162,2.34 -0.487,3.21 -0.343,0.87 -0.94,1.313 -1.792,1.331 -0.484,0 -0.862,-0.127 -1.134,-0.38 a 2.764,2.764 0 0 1 -0.671,-1.034 6.642,6.642 0 0 1 -0.292,-1.453 12.915,12.915 0 0 1 -0.104,-1.674 m 4.48,-4.783 h -0.065 c -0.141,-0.404 -0.5,-0.846 -1.08,-1.322 -0.586,-0.495 -1.292,-0.764 -2.116,-0.809 -1.675,0.045 -2.832,0.742 -3.472,2.09 -0.632,1.34 -0.938,2.95 -0.921,4.832 0,1.99 0.36,3.633 1.079,4.926 0.684,1.312 1.788,1.976 3.314,1.996 0.482,0 0.912,-0.055 1.289,-0.164 a 3.03,3.03 0 0 0 0.893,-0.53 c 0.5,-0.424 0.838,-0.822 1.014,-1.193 h 0.065 v 7.531 h 2.984 V 120.85 h -2.984 z m 9.268,1.629 c 0,-1.061 0.532,-1.59 1.597,-1.59 0.484,0 0.907,0.13 1.267,0.395 0.326,0.234 0.599,0.55 0.82,0.949 0.211,0.408 0.374,0.834 0.487,1.277 0.07,0.46 0.106,0.914 0.106,1.358 -1.029,0 -1.975,-0.166 -2.839,-0.502 a 2.598,2.598 0 0 1 -1.002,-0.746 1.633,1.633 0 0 1 -0.436,-1.141 m 4.277,-1.916 h -0.051 c -0.186,-0.424 -0.529,-0.832 -1.03,-1.221 a 3.831,3.831 0 0 0 -0.974,-0.42 6.208,6.208 0 0 0 -1.345,-0.203 c -1.098,0.028 -1.998,0.344 -2.702,0.947 -0.721,0.633 -1.079,1.473 -1.079,2.52 0.016,1.094 0.315,1.955 0.895,2.588 a 4.672,4.672 0 0 0 2.043,1.3 c 0.817,0.262 1.612,0.43 2.385,0.503 0.791,0.072 1.41,0.097 1.858,0.08 v 1.304 c 0,0.688 -0.109,1.262 -0.329,1.725 -0.245,0.453 -0.736,0.688 -1.472,0.705 -0.79,-0.017 -1.321,-0.244 -1.592,-0.678 a 2.3,2.3 0 0 1 -0.382,-1.36 h -2.902 c 0,2.733 1.626,4.136 4.876,4.21 3.117,-0.02 4.666,-1.391 4.649,-4.113 v -9.418 h -2.848 z m 9.241,5.07 c 0,-0.498 0.034,-1.014 0.104,-1.549 0.053,-0.545 0.15,-1.039 0.292,-1.482 0.166,-0.444 0.39,-0.797 0.67,-1.06 a 1.595,1.595 0 0 1 1.135,-0.436 c 0.439,0 0.799,0.146 1.08,0.435 0.29,0.264 0.527,0.617 0.712,1.061 0.325,0.916 0.487,1.926 0.487,3.031 0,1.27 -0.162,2.34 -0.487,3.21 -0.343,0.87 -0.94,1.313 -1.792,1.331 -0.484,0 -0.862,-0.127 -1.134,-0.38 a 2.764,2.764 0 0 1 -0.671,-1.034 6.642,6.642 0 0 1 -0.292,-1.453 12.915,12.915 0 0 1 -0.104,-1.674 m 4.48,-4.783 h -0.065 c -0.141,-0.404 -0.5,-0.846 -1.08,-1.322 -0.586,-0.495 -1.292,-0.764 -2.116,-0.809 -1.675,0.045 -2.832,0.742 -3.472,2.09 -0.632,1.34 -0.94,2.95 -0.921,4.832 0,1.99 0.36,3.633 1.079,4.926 0.684,1.312 1.788,1.976 3.314,1.996 0.482,0 0.912,-0.055 1.288,-0.164 0.36,-0.145 0.659,-0.32 0.895,-0.53 0.5,-0.424 0.837,-0.822 1.013,-1.193 h 0.065 v 7.531 h 2.984 V 120.85 h -2.984 z m 13.789,7.465 c 0.02,0.463 -0.114,0.959 -0.396,1.488 a 1.942,1.942 0 0 1 -0.687,0.588 c -0.299,0.145 -0.695,0.219 -1.188,0.219 -0.869,-0.02 -1.498,-0.301 -1.886,-0.848 -0.37,-0.52 -0.575,-1.002 -0.612,-1.447 z m 2.505,-9.066 c -1.043,-0.354 -2.24,-0.53 -3.59,-0.53 -4.272,0.063 -6.426,2.606 -6.46,7.627 -0.018,1.883 0.411,3.389 1.288,4.52 0.886,1.113 2.29,1.678 4.21,1.697 3.245,-0.092 4.867,-1.875 4.867,-5.35 v -0.744 h -7.6 c 0,-0.463 0.09,-1.004 0.264,-1.62 0.097,-0.3 0.207,-0.608 0.33,-0.925 0.14,-0.291 0.304,-0.593 0.49,-0.912 a 4.773,4.773 0 0 1 1.477,-1.482 c 0.634,-0.428 1.39,-0.641 2.271,-0.641 1.024,0.037 1.842,0.205 2.453,0.504 z m 15.055,2.087 h 1.27 c 0.529,0 1.053,0.047 1.573,0.137 0.502,0.072 0.965,0.22 1.388,0.447 0.415,0.242 0.745,0.586 0.992,1.03 0.237,0.423 0.358,0.98 0.358,1.665 -0.02,1.256 -0.398,2.141 -1.138,2.657 -0.776,0.505 -1.834,0.757 -3.173,0.757 h -1.27 z m 0,8.998 h 1.262 c 0.492,0 0.953,0.041 1.382,0.123 0.412,0.072 0.763,0.2 1.053,0.381 0.297,0.19 0.529,0.478 0.696,0.87 0.158,0.351 0.237,0.831 0.237,1.437 0,0.615 -0.07,1.11 -0.211,1.48 a 1.79,1.79 0 0 1 -0.697,0.801 2.512,2.512 0 0 1 -1.052,0.422 4.085,4.085 0 0 1 -0.644,0.054 h -2.026 z m -3.146,7.873 h 5.71 c 0.518,0 1.082,-0.045 1.695,-0.135 a 4.507,4.507 0 0 0 1.719,-0.638 c 0.535,-0.299 0.982,-0.756 1.34,-1.37 0.342,-0.607 0.513,-1.394 0.513,-2.363 0,-0.76 -0.101,-1.396 -0.302,-1.912 a 3.735,3.735 0 0 0 -0.826,-1.277 c -0.7,-0.633 -1.356,-1.039 -1.968,-1.22 v -0.056 a 5.945,5.945 0 0 0 1.337,-0.312 c 0.467,-0.18 0.898,-0.457 1.296,-0.828 0.414,-0.352 0.758,-0.836 1.032,-1.45 0.256,-0.589 0.383,-1.359 0.383,-2.308 -0.018,-1.168 -0.207,-2.096 -0.566,-2.783 -0.378,-0.723 -0.882,-1.258 -1.514,-1.602 a 6.412,6.412 0 0 0 -2.001,-0.732 12.517,12.517 0 0 0 -2.12,-0.19 h -5.728 z m 15.321,-5.943 h 2.983 v -2.443 h 0.063 c 0.175,0.326 0.38,0.656 0.618,0.99 0.21,0.316 0.46,0.607 0.749,0.869 0.597,0.57 1.522,0.863 2.775,0.883 v -3.231 c -2.866,0.037 -4.267,-1.463 -4.205,-4.5 v -5.8 h -2.982 z m 12.077,-9.785 c 0,-1.061 0.532,-1.59 1.597,-1.59 0.484,0 0.907,0.13 1.267,0.395 0.326,0.234 0.6,0.55 0.82,0.949 0.211,0.408 0.374,0.834 0.488,1.277 0.07,0.46 0.105,0.914 0.105,1.358 -1.029,0 -1.975,-0.166 -2.839,-0.502 a 2.606,2.606 0 0 1 -1.002,-0.746 1.633,1.633 0 0 1 -0.436,-1.141 m 4.277,-1.916 h -0.052 c -0.185,-0.424 -0.528,-0.832 -1.029,-1.221 a 3.816,3.816 0 0 0 -0.974,-0.42 6.208,6.208 0 0 0 -1.345,-0.203 c -1.098,0.028 -1.998,0.344 -2.702,0.947 -0.72,0.633 -1.079,1.473 -1.079,2.52 0.016,1.094 0.315,1.955 0.895,2.588 a 4.672,4.672 0 0 0 2.043,1.3 c 0.817,0.262 1.612,0.43 2.385,0.503 0.791,0.072 1.41,0.097 1.858,0.08 v 1.304 c 0,0.688 -0.109,1.262 -0.329,1.725 -0.245,0.453 -0.736,0.688 -1.474,0.705 -0.788,-0.017 -1.319,-0.244 -1.59,-0.678 a 2.3,2.3 0 0 1 -0.382,-1.36 h -2.902 c 0,2.733 1.625,4.136 4.874,4.21 3.12,-0.02 4.668,-1.391 4.652,-4.113 v -9.418 h -2.849 z m 13.471,8.891 c -0.177,0.109 -0.518,0.285 -1.026,0.53 -0.518,0.218 -1.127,0.335 -1.83,0.355 -0.483,0 -0.92,-0.1 -1.315,-0.3 -0.456,-0.226 -0.685,-0.534 -0.685,-0.923 0,-0.182 0.093,-0.375 0.277,-0.584 a 2.67,2.67 0 0 1 0.645,-0.61 c 0.543,-0.37 1.18,-0.787 1.908,-1.25 a 8.342,8.342 0 0 0 1.948,-1.615 c 0.552,-0.623 0.838,-1.41 0.855,-2.361 -0.017,-1.347 -0.465,-2.34 -1.342,-2.972 -0.877,-0.67 -2.045,-1.004 -3.5,-1.004 -0.86,0.027 -1.562,0.093 -2.106,0.203 -0.553,0.125 -0.982,0.234 -1.289,0.324 v 2.662 c 0.21,-0.072 0.451,-0.154 0.724,-0.244 a 4.93,4.93 0 0 1 0.775,-0.287 5.9,5.9 0 0 1 1.763,-0.272 c 0.43,0 0.894,0.073 1.392,0.219 0.52,0.144 0.79,0.47 0.817,0.976 -0.027,0.39 -0.307,0.79 -0.842,1.198 a 34.28,34.28 0 0 1 -1.906,1.277 c -0.325,0.244 -0.659,0.502 -1,0.774 -0.325,0.28 -0.622,0.58 -0.895,0.898 a 3.306,3.306 0 0 0 -0.88,2.229 c 0,1.257 0.42,2.222 1.262,2.894 0.825,0.66 1.938,0.992 3.342,0.992 a 11.747,11.747 0 0 0 1.723,-0.164 22.71,22.71 0 0 0 1.185,-0.338 z m 3.806,2.81 h 2.983 v -13.232 h -2.983 z m 0,5.943 h 2.983 v -3.039 h -2.983 z m 7.193,0 h 2.983 V 120.85 h -2.983 z m 13.816,-9.892 c 0.02,0.463 -0.113,0.959 -0.395,1.488 a 1.95,1.95 0 0 1 -0.687,0.588 c -0.3,0.145 -0.695,0.219 -1.188,0.219 -0.87,-0.02 -1.498,-0.301 -1.886,-0.848 -0.371,-0.52 -0.575,-1.002 -0.612,-1.447 z m 2.507,-9.066 c -1.044,-0.354 -2.241,-0.53 -3.592,-0.53 -4.271,0.063 -6.425,2.606 -6.46,7.627 -0.017,1.883 0.412,3.389 1.288,4.52 0.887,1.113 2.29,1.678 4.21,1.697 3.246,-0.092 4.868,-1.875 4.868,-5.35 v -0.744 h -7.6 c 0,-0.463 0.089,-1.004 0.264,-1.62 0.097,-0.3 0.207,-0.608 0.33,-0.925 0.14,-0.291 0.304,-0.593 0.489,-0.912 a 4.773,4.773 0 0 1 1.478,-1.482 c 0.634,-0.428 1.39,-0.641 2.272,-0.641 1.023,0.037 1.842,0.205 2.453,0.504 z m 3.736,13.015 h 2.984 v -13.232 h -2.984 z m 0,5.943 h 2.984 v -3.039 h -2.984 z m 7.005,-5.943 h 2.98 v -2.443 h 0.064 c 0.176,0.326 0.382,0.656 0.619,0.99 0.21,0.316 0.46,0.607 0.748,0.869 0.598,0.57 1.523,0.863 2.776,0.883 v -3.231 c -2.866,0.037 -4.267,-1.463 -4.206,-4.5 v -5.8 h -2.981 z m 12.076,-9.785 c 0,-1.061 0.532,-1.59 1.597,-1.59 0.484,0 0.906,0.13 1.267,0.395 0.326,0.234 0.599,0.55 0.82,0.949 0.21,0.408 0.374,0.834 0.487,1.277 0.07,0.46 0.106,0.914 0.106,1.358 -1.03,0 -1.975,-0.166 -2.84,-0.502 a 2.606,2.606 0 0 1 -1.001,-0.746 1.633,1.633 0 0 1 -0.436,-1.141 m 4.277,-1.916 h -0.052 c -0.185,-0.424 -0.528,-0.832 -1.03,-1.221 a 3.816,3.816 0 0 0 -0.973,-0.42 6.208,6.208 0 0 0 -1.345,-0.203 c -1.097,0.028 -1.998,0.344 -2.701,0.947 -0.722,0.633 -1.08,1.473 -1.08,2.52 0.016,1.094 0.315,1.955 0.895,2.588 a 4.672,4.672 0 0 0 2.043,1.3 c 0.817,0.262 1.612,0.43 2.385,0.503 0.79,0.072 1.41,0.097 1.858,0.08 v 1.304 c 0,0.688 -0.11,1.262 -0.33,1.725 -0.245,0.453 -0.735,0.688 -1.472,0.705 -0.79,-0.017 -1.32,-0.244 -1.591,-0.678 a 2.3,2.3 0 0 1 -0.382,-1.36 h -2.902 c 0,2.733 1.625,4.136 4.875,4.21 3.118,-0.02 4.668,-1.391 4.65,-4.113 v -9.418 H 516.2 Z M 322.197,101.337 c 0,-0.498 0.033,-1.016 0.105,-1.551 a 7.123,7.123 0 0 1 0.29,-1.48 c 0.167,-0.446 0.39,-0.8 0.67,-1.061 a 1.592,1.592 0 0 1 1.136,-0.435 c 0.439,0 0.799,0.144 1.08,0.435 0.29,0.262 0.528,0.615 0.712,1.06 0.325,0.915 0.487,1.927 0.487,3.032 0,1.268 -0.162,2.338 -0.487,3.209 -0.343,0.869 -0.94,1.312 -1.792,1.332 -0.484,0 -0.861,-0.127 -1.135,-0.381 a 2.792,2.792 0 0 1 -0.671,-1.033 6.665,6.665 0 0 1 -0.29,-1.455 12.537,12.537 0 0 1 -0.105,-1.672 m 4.48,-4.783 h -0.065 c -0.141,-0.406 -0.5,-0.846 -1.08,-1.322 -0.587,-0.495 -1.292,-0.766 -2.116,-0.811 -1.675,0.047 -2.832,0.742 -3.472,2.092 -0.632,1.338 -0.938,2.949 -0.921,4.83 0,1.99 0.36,3.633 1.079,4.928 0.684,1.31 1.788,1.976 3.314,1.994 0.482,0 0.912,-0.055 1.289,-0.162 0.359,-0.145 0.658,-0.323 0.894,-0.53 0.5,-0.425 0.837,-0.822 1.013,-1.193 h 0.065 v 7.53 h 2.984 V 94.734 h -2.984 z m 13.789,7.463 c 0.02,0.465 -0.114,0.96 -0.396,1.488 a 1.902,1.902 0 0 1 -0.687,0.588 c -0.299,0.147 -0.695,0.219 -1.188,0.219 -0.869,-0.018 -1.498,-0.301 -1.887,-0.848 -0.37,-0.517 -0.574,-1 -0.61,-1.447 z m 2.506,-9.066 c -1.045,-0.352 -2.242,-0.53 -3.592,-0.53 -4.27,0.065 -6.425,2.608 -6.46,7.629 -0.017,1.88 0.412,3.387 1.29,4.52 0.885,1.11 2.288,1.677 4.21,1.695 3.244,-0.09 4.866,-1.873 4.866,-5.35 v -0.744 h -7.599 c 0,-0.463 0.088,-1.002 0.263,-1.62 0.096,-0.298 0.207,-0.606 0.33,-0.925 0.141,-0.29 0.304,-0.593 0.49,-0.912 a 4.805,4.805 0 0 1 1.477,-1.482 c 0.634,-0.426 1.391,-0.64 2.272,-0.64 1.023,0.036 1.841,0.204 2.453,0.503 z m 24.047,0.577 a 14.71,14.71 0 0 0 -0.802,-0.297 7.88,7.88 0 0 0 -1.196,-0.39 c -0.895,-0.252 -1.916,-0.393 -3.064,-0.42 -2.673,0.027 -4.637,0.945 -5.89,2.755 -1.28,1.801 -1.921,4.211 -1.921,7.235 -0.018,2.885 0.547,5.228 1.697,7.03 1.131,1.81 3.007,2.735 5.628,2.782 2.155,-0.027 3.738,-0.576 4.746,-1.644 0.999,-1.076 1.499,-2.385 1.499,-3.924 h -3.499 c 0,0.391 -0.017,0.78 -0.052,1.17 a 2.932,2.932 0 0 1 -0.408,1.058 1.98,1.98 0 0 1 -0.801,0.776 c -0.376,0.172 -0.873,0.258 -1.486,0.258 -0.806,-0.018 -1.459,-0.244 -1.959,-0.68 -0.508,-0.426 -0.893,-0.986 -1.156,-1.684 a 9.843,9.843 0 0 1 -0.565,-2.255 17.141,17.141 0 0 1 -0.171,-2.39 c -0.018,-2.32 0.359,-4.214 1.13,-5.68 0.754,-1.487 2.065,-2.239 3.93,-2.257 1.079,0.018 2.004,0.223 2.776,0.612 0.771,0.353 1.293,0.621 1.564,0.802 z m 5.624,5.809 c 0,-0.605 0.035,-1.19 0.105,-1.75 a 6.578,6.578 0 0 1 0.318,-1.518 2.5,2.5 0 0 1 0.793,-1.056 c 0.326,-0.281 0.75,-0.42 1.267,-0.42 0.538,0 0.98,0.139 1.324,0.42 0.325,0.262 0.572,0.613 0.74,1.056 0.176,0.46 0.3,0.967 0.37,1.518 0.035,0.56 0.053,1.145 0.053,1.75 0.017,1.3 -0.123,2.412 -0.424,3.334 a 2.437,2.437 0 0 1 -0.739,1.059 c -0.344,0.242 -0.786,0.365 -1.324,0.365 -0.518,0 -0.94,-0.123 -1.267,-0.365 a 2.521,2.521 0 0 1 -0.793,-1.06 c -0.3,-0.921 -0.442,-2.032 -0.423,-3.333 m 2.483,-6.916 c -3.754,0.082 -5.639,2.389 -5.657,6.922 0.018,4.543 1.903,6.849 5.657,6.922 3.756,-0.073 5.642,-2.38 5.66,-6.922 -0.018,-4.533 -1.904,-6.84 -5.66,-6.922 m 8.808,13.545 h 2.99 v -2.035 h 0.052 c 0.108,0.226 0.244,0.478 0.407,0.76 0.171,0.254 0.398,0.502 0.677,0.746 0.272,0.263 0.603,0.467 0.992,0.61 0.39,0.146 0.856,0.218 1.4,0.218 0.831,0 1.541,-0.203 2.13,-0.611 0.596,-0.444 0.995,-1.118 1.194,-2.022 h 0.067 c 0.2,0.553 0.607,1.127 1.222,1.725 0.606,0.588 1.438,0.89 2.497,0.908 1.005,0 1.855,-0.34 2.553,-1.018 0.67,-0.705 1.011,-1.818 1.031,-3.338 v -9.175 h -2.986 v 7.57 c 0,1.314 -0.088,2.174 -0.264,2.582 -0.204,0.353 -0.584,0.52 -1.14,0.504 -0.454,0 -0.852,-0.147 -1.196,-0.436 -0.333,-0.316 -0.615,-0.73 -0.848,-1.236 a 7.983,7.983 0 0 1 -0.68,-3.248 v -5.736 h -2.984 v 7.57 c 0,1.314 -0.088,2.174 -0.263,2.582 -0.205,0.353 -0.584,0.52 -1.14,0.504 a 1.8,1.8 0 0 1 -1.196,-0.436 c -0.343,-0.316 -0.625,-0.73 -0.848,-1.236 a 7.968,7.968 0 0 1 -0.68,-3.248 v -5.736 h -2.987 z m 24.212,-6.629 c -0.018,-1.242 0.146,-2.3 0.488,-3.168 0.342,-0.89 0.926,-1.342 1.753,-1.36 0.528,0 0.936,0.135 1.226,0.409 0.281,0.262 0.505,0.605 0.673,1.033 0.158,0.443 0.254,0.938 0.289,1.48 a 25.3,25.3 0 0 1 0,3.223 5.81,5.81 0 0 1 -0.316,1.455 c -0.168,0.444 -0.391,0.807 -0.673,1.088 -0.307,0.254 -0.708,0.38 -1.199,0.38 a 1.37,1.37 0 0 1 -0.988,-0.38 3.529,3.529 0 0 1 -0.738,-1.088 c -0.343,-0.933 -0.515,-1.957 -0.515,-3.072 m -2.982,6.629 h 2.982 v -1.832 h 0.066 c 0.176,0.426 0.553,0.877 1.131,1.357 0.553,0.498 1.233,0.756 2.039,0.774 1.693,-0.035 2.859,-0.72 3.498,-2.05 0.631,-1.34 0.939,-2.962 0.921,-4.872 0,-1.963 -0.343,-3.592 -1.026,-4.885 -0.719,-1.312 -1.85,-1.99 -3.393,-2.037 -0.447,0 -0.85,0.078 -1.21,0.23 a 2.999,2.999 0 0 0 -0.921,0.473 c -0.5,0.422 -0.845,0.817 -1.039,1.186 h -0.066 v -7.52 h -2.982 z M 426.443,97.19 h -0.053 a 3.381,3.381 0 0 0 -0.408,-0.824 3.956,3.956 0 0 0 -0.724,-0.918 4.748,4.748 0 0 0 -1.104,-0.717 c -0.448,-0.207 -0.97,-0.31 -1.566,-0.31 -0.965,0 -1.77,0.353 -2.42,1.058 -0.684,0.725 -1.036,1.828 -1.054,3.313 v 9.173 h 2.983 v -7.57 c 0,-1.305 0.097,-2.15 0.291,-2.54 0.185,-0.39 0.53,-0.575 1.031,-0.558 0.502,0 0.941,0.168 1.32,0.502 0.38,0.32 0.696,0.717 0.951,1.198 a 7.248,7.248 0 0 1 0.753,3.234 v 5.734 h 2.983 V 94.733 h -2.983 z m 14.693,-2.539 a 13.252,13.252 0 0 0 -2.46,-0.23 c -0.822,0 -1.492,0.105 -2.01,0.312 -0.524,0.182 -0.926,0.44 -1.208,0.773 a 3.367,3.367 0 0 0 -0.538,1.196 5.33,5.33 0 0 0 -0.171,1.371 v 7.75 h -2.5 v 2.142 h 2.5 v 3.135 l 2.984,1.86 v -4.995 h 3.798 v -2.142 h -3.798 v -6.258 c -0.02,-0.814 0.096,-1.498 0.342,-2.05 0.132,-0.28 0.33,-0.493 0.594,-0.639 0.273,-0.19 0.633,-0.284 1.082,-0.284 0.492,0 0.954,0.077 1.385,0.231 z m 4.957,3.529 c 0,-1.058 0.532,-1.587 1.597,-1.587 0.484,0 0.907,0.13 1.267,0.393 0.326,0.236 0.599,0.552 0.82,0.95 0.21,0.407 0.374,0.833 0.488,1.278 0.07,0.46 0.105,0.914 0.105,1.358 -1.03,0 -1.975,-0.168 -2.84,-0.502 a 2.61,2.61 0 0 1 -1.001,-0.748 1.63,1.63 0 0 1 -0.436,-1.141 m 4.277,-1.914 h -0.052 c -0.185,-0.426 -0.528,-0.832 -1.03,-1.221 a 3.747,3.747 0 0 0 -0.973,-0.42 6.079,6.079 0 0 0 -1.345,-0.205 c -1.098,0.028 -1.998,0.344 -2.701,0.949 -0.721,0.633 -1.08,1.473 -1.08,2.52 0.016,1.092 0.315,1.955 0.895,2.588 a 4.693,4.693 0 0 0 2.042,1.3 11.24,11.24 0 0 0 2.385,0.5 c 0.792,0.073 1.41,0.1 1.859,0.083 v 1.302 c 0,0.69 -0.11,1.264 -0.33,1.725 -0.244,0.453 -0.735,0.689 -1.472,0.707 -0.79,-0.018 -1.32,-0.244 -1.592,-0.68 a 2.303,2.303 0 0 1 -0.381,-1.357 h -2.902 c 0,2.732 1.625,4.135 4.875,4.207 3.118,-0.018 4.668,-1.39 4.65,-4.111 v -9.42 h -2.848 z m 10.065,-1.424 c -2.75,0.777 -4.16,3.139 -4.23,7.084 -0.02,1.783 0.457,3.275 1.425,4.479 0.96,1.203 2.485,1.824 4.575,1.859 0.996,0 1.826,-0.127 2.488,-0.381 0.619,-0.262 1.123,-0.625 1.509,-1.088 0.206,-0.226 0.372,-0.457 0.497,-0.693 0.126,-0.281 0.228,-0.571 0.309,-0.87 0.126,-0.59 0.189,-1.193 0.189,-1.808 h -3.176 c 0,0.668 -0.12,1.277 -0.361,1.83 -0.287,0.54 -0.848,0.822 -1.682,0.84 -0.852,-0.018 -1.496,-0.361 -1.932,-1.03 -0.444,-0.687 -0.668,-1.55 -0.668,-2.59 0,-0.66 0.105,-1.333 0.31,-2.02 a 6.833,6.833 0 0 1 0.915,-1.911 5.062,5.062 0 0 1 1.667,-1.37 c 0.68,-0.388 1.519,-0.581 2.513,-0.581 0.86,0 1.594,0.11 2.204,0.338 v -1.885 c -1.14,-0.39 -2.398,-0.598 -3.776,-0.625 a 7.95,7.95 0 0 0 -1.244,0.096 l -0.357,-1.586 c 0.106,0.017 0.234,0.027 0.385,0.027 0.258,0 0.538,-0.027 0.84,-0.082 a 2.31,2.31 0 0 0 0.876,-0.42 c 0.294,-0.181 0.521,-0.44 0.68,-0.775 0.168,-0.334 0.254,-0.75 0.254,-1.248 0,-0.795 -0.263,-1.457 -0.787,-1.981 -0.516,-0.552 -1.32,-0.838 -2.416,-0.855 -0.533,0.017 -0.968,0.1 -1.303,0.244 -0.334,0.127 -0.598,0.24 -0.787,0.338 v 1.75 c 0.288,-0.172 0.586,-0.33 0.893,-0.475 a 2.658,2.658 0 0 1 1.031,-0.257 c 0.455,0.025 0.775,0.175 0.961,0.447 0.195,0.244 0.293,0.508 0.293,0.787 -0.02,0.607 -0.246,1.016 -0.684,1.223 a 3.23,3.23 0 0 1 -1.408,0.273 c -0.234,0 -0.466,-0.037 -0.69,-0.11 z m 11.363,3.337 c 0,-1.058 0.53,-1.587 1.597,-1.587 0.483,0 0.907,0.13 1.268,0.393 0.325,0.236 0.598,0.552 0.819,0.95 0.21,0.407 0.374,0.833 0.488,1.278 0.07,0.46 0.105,0.914 0.105,1.358 -1.03,0 -1.975,-0.168 -2.84,-0.502 a 2.61,2.61 0 0 1 -1.001,-0.748 1.63,1.63 0 0 1 -0.436,-1.141 m -1.178,12.338 c -0.018,1.269 0.1,2.22 0.355,2.85 0.255,0.632 0.737,0.949 1.447,0.949 0.308,0 0.632,-0.096 0.974,-0.285 0.36,-0.163 0.71,-0.373 1.052,-0.635 0.36,-0.217 0.676,-0.42 0.948,-0.608 0.263,-0.2 0.469,-0.298 0.619,-0.298 0.192,-0.018 0.328,0.089 0.408,0.324 0.035,0.244 0.053,0.658 0.053,1.244 h 1.578 c 0,-1.307 -0.096,-2.266 -0.29,-2.88 -0.237,-0.603 -0.75,-0.905 -1.538,-0.905 -0.361,0 -0.702,0.09 -1.027,0.27 -0.36,0.189 -0.698,0.384 -1.013,0.58 -0.325,0.245 -0.615,0.449 -0.868,0.61 -0.273,0.153 -0.49,0.229 -0.646,0.229 -0.166,0 -0.285,-0.094 -0.354,-0.283 -0.071,-0.2 -0.106,-0.586 -0.106,-1.162 z m 5.455,-14.252 h -0.052 c -0.185,-0.426 -0.528,-0.832 -1.028,-1.221 a 3.784,3.784 0 0 0 -0.975,-0.42 6.088,6.088 0 0 0 -1.345,-0.205 c -1.098,0.028 -1.998,0.344 -2.701,0.949 -0.721,0.633 -1.08,1.473 -1.08,2.52 0.016,1.092 0.315,1.955 0.895,2.588 a 4.69,4.69 0 0 0 2.043,1.3 c 0.817,0.262 1.612,0.428 2.385,0.5 0.79,0.073 1.409,0.1 1.858,0.083 v 1.302 c 0,0.69 -0.11,1.264 -0.33,1.725 -0.244,0.453 -0.735,0.689 -1.472,0.707 -0.79,-0.018 -1.32,-0.244 -1.591,-0.68 a 2.297,2.297 0 0 1 -0.382,-1.357 h -2.902 c 0,2.732 1.625,4.135 4.875,4.207 3.118,-0.018 4.668,-1.39 4.65,-4.111 v -9.42 h -2.848 z m 9.24,5.07 c 0,-0.605 0.035,-1.19 0.105,-1.75 a 6.578,6.578 0 0 1 0.318,-1.518 2.5,2.5 0 0 1 0.793,-1.056 c 0.326,-0.281 0.75,-0.42 1.268,-0.42 0.537,0 0.98,0.139 1.323,0.42 0.324,0.262 0.572,0.613 0.738,1.056 0.178,0.46 0.301,0.967 0.372,1.518 0.035,0.56 0.053,1.145 0.053,1.75 0.017,1.3 -0.122,2.412 -0.425,3.334 a 2.435,2.435 0 0 1 -0.738,1.059 c -0.344,0.242 -0.786,0.365 -1.323,0.365 -0.519,0 -0.942,-0.123 -1.268,-0.365 a 2.521,2.521 0 0 1 -0.793,-1.06 c -0.3,-0.921 -0.443,-2.032 -0.423,-3.333 m 2.484,-6.916 c -3.755,0.082 -5.64,2.389 -5.658,6.922 0.018,4.543 1.903,6.849 5.658,6.922 3.755,-0.073 5.641,-2.38 5.66,-6.922 -0.019,-4.533 -1.905,-6.84 -5.66,-6.922"
       fill="#7b7979"
       id="path11"
       inkscape:highlight-color="#f3f3f3"
       style="display:inline;fill:#ffffff;fill-opacity:1"
       inkscape:label="path11" />
    <path
       d="M332.82 219.964c-5.788 3.055-10.987 6.13-15.376 9.086-1.97 1.512-3.555 3.125-4.794 4.898-1.164 1.39-1.726 2.928-1.726 4.698 0 3.74 1.164 6.338 3.6 7.978 2.319 1.69 5.408 2.547 9.15 2.547 4.66-.09 8.94-.785 12.715-2.066 3.88-1.321 7.406-2.702 10.486-4.108l2.189-1v19l-1.153.305c-1.802.476-4.82 1.045-8.954 1.693-4.276.705-9.225 1.063-14.711 1.063-9.45 0-17.473-2.092-23.85-6.22-6.752-4.397-10.223-11.343-10.316-20.677.094-7.217 2.666-13.152 7.616-17.617 4.575-4.34 9.947-8.135 15.954-11.275 5.785-3.094 10.947-6.366 15.36-9.735 4.209-3.101 6.293-6.97 6.376-11.797 0-2.98-1.005-5.628-3.056-8.078-2.246-2.597-6.3-3.96-12-4.043-5.62.086-10.696 1.246-15.127 3.463-4.408 2.043-8.11 4.02-10.993 5.867l-2.383 1.528V164.2l1.21-.271c1.654-.37 4.92-1.131 9.806-2.285 4.916-1.131 10.564-1.774 16.78-1.914h.036c10.872 0 19.713 2.509 26.27 7.453 6.696 4.998 10.159 12.39 10.303 22.019-.144 7.684-2.668 14.065-7.506 18.96-4.57 4.624-9.918 8.59-15.906 11.802m82.254-36.304c-1.125-2.01-2.637-3.585-4.45-4.653-1.994-1.065-4.213-1.778-6.636-2.125a45.304 45.304 0 0 0-7.777-.672h-4.942v31.123h4.942c6.509 0 11.687-1.22 15.342-3.602 3.38-2.349 5.066-6.383 5.149-12.302 0-3.227-.548-5.838-1.628-7.77m-23.805 63.916h8.808c.979 0 2.005-.086 3.029-.254 1.866-.328 3.462-.963 4.844-1.949 1.268-.772 2.237-1.895 2.919-3.322.648-1.71.976-4.07.976-7.018 0-2.865-.361-5.129-1.085-6.748-.725-1.69-1.723-2.949-2.963-3.738-1.303-.817-2.93-1.4-4.846-1.737-2.095-.396-4.375-.597-6.775-.597h-4.907zm37.176-37.223c-2.164 2.024-4.561 3.553-7.173 4.563-.876.308-1.743.574-2.598.803 2.062 1.17 4.198 2.754 6.398 4.75 1.886 1.851 3.425 4.22 4.582 7.064 1.095 2.81 1.65 6.29 1.65 10.346 0 5.195-.947 9.513-2.83 12.853-1.968 3.371-4.467 5.92-7.372 7.545-2.947 1.815-6.096 2.985-9.38 3.475-3.204.472-6.193.711-8.882.711h-30.752V161.325h30.832c3.525 0 7.259.334 11.123.998 3.83.723 7.437 2.043 10.685 3.908 3.492 1.903 6.31 4.873 8.373 8.83 1.945 3.715 2.978 8.733 3.073 14.942 0 5.045-.704 9.22-2.097 12.424-1.486 3.345-3.398 6.027-5.632 7.925m91.875 22.149v1.549c0 8.232-2.718 15.334-8.086 21.123-5.429 5.752-13.966 8.74-25.419 8.885-13.894-.241-24.008-5.272-30.049-14.94-6.009-9.416-9.008-21.793-8.914-36.773 0-15.705 3.398-28.448 10.088-37.864 6.684-9.646 17.236-14.609 31.371-14.751h.053c5.974.14 11.374.878 15.992 2.183 2.317.568 4.451 1.268 6.25 2.039a76.108 76.108 0 0 1 4.188 1.551l.96.393v18.539l-2.408-1.608c-1.312-.875-3.929-2.213-7.838-4.004-3.712-1.877-8.257-2.871-13.468-2.959-9 .086-15.127 3.58-18.742 10.701-3.807 7.243-5.692 16.762-5.602 28.313 0 3.9.291 7.941.861 12.023.522 3.942 1.465 7.702 2.803 11.188 1.244 3.297 3.082 5.98 5.482 7.992 2.262 1.967 5.297 3.008 8.995 3.09 2.897 0 5.234-.397 6.843-1.123 1.59-.883 2.734-1.981 3.545-3.436a13.428 13.428 0 0 0 1.846-4.726c.174-1.932.264-3.895.264-5.836v-1.549z"
       fill="#fff"
       id="path13" />
    <path
       d="M339.132 507.684h-57.979s-.01-54.442 0-82.158c3.731 54.249 57.98 82.158 57.98 82.158"
       fill="#f3c20a"
       id="path15" />
    <path
       d="M560.709 403.842c-4.062-5.895-11.552-13.534-21.956-21.142 3.049-4.095 5.49-8.254 7.406-12.427 10.827 16.789 14.996 31.105 14.55 33.569m-195.561-48.615c-14.528 8.44-23.571 15.28-31.42 24.212-3.872-1.88-13.412-7.206-17.64-8.493 2.966 3.693 9.804 10.37 13.57 13.183-39.795 46.955 3.092 95.552 23.865 113.913-54.802-22.571-110.711-134.225-9.41-183.777 78.58-30.053 138.884-16.258 170.792 13.284-3.775 8.373-8.515 15.794-14.031 22.33-35.153-15.688-78.036-20.024-135.726 5.348"
       fill="#3876c4"
       id="path17" />
  </g>
</svg>
