<svg xmlns="http://www.w3.org/2000/svg" width="372.79" height="560.116" viewBox="0 0 372.78964 560.11573"><defs><clipPath id="a"><path d="M0 595.28h841.89V0H0z"/></clipPath></defs><g clip-path="url(#a)" transform="matrix(1.33333 0 0 -1.33333 -374.865 676.911)"><path d="M281.153 352.29V149.374h250.61v145.543c-.943 9.888-2.888 18.91-5.695 27.118-42.022-46.518-181.081-54.925-244.915 30.255" fill="#2c8669"/><path d="M544.773 357.477c-1.916 4.172-4.357 8.33-7.406 12.427-8.602 11.558-22.06 22.613-42.343 32.032-80.682 34.139-140.137-1.734-163.484-19.177-4.363-3.26-7.468-5.878-9.21-7.272 2.933 2.147 6.38 4.175 10.253 6.053 41.56 20.166 132.573 23.133 175.941-28.268 5.517-6.538 10.257-13.958 14.032-22.331a102.86 102.86 0 0 0 3.511-8.905c2.808-8.208 4.752-17.231 5.695-27.12a148.71 148.71 0 0 0 .636-16.588c-.399-3.983 31.16 38.215 12.375 79.149" fill="#d3d2d2"/><path d="M303.565 136.798c-.614.28-1.307.553-2.08.814-.771.262-1.631.403-2.578.42-.807 0-1.465-.185-1.974-.554-.553-.371-.828-.973-.828-1.807 0-.416.136-.787.406-1.113a4.6 4.6 0 0 1 .988-1.004 32.635 32.635 0 0 1 3.05-1.805 12.6 12.6 0 0 0 3.037-2.254c.894-.904 1.355-2.07 1.38-3.5-.025-1.783-.658-3.136-1.892-4.058-1.237-.934-2.89-1.4-4.958-1.4-1.201.029-2.275.15-3.222.368-.955.225-1.596.375-1.92.448v3.365c.58-.371 1.309-.762 2.187-1.168.904-.453 1.93-.688 3.082-.705 1.219.017 2.08.316 2.58.894.448.536.672 1.127.672 1.78-.02 1.039-.474 1.89-1.37 2.55a22.508 22.508 0 0 1-3.041 1.928 13.425 13.425 0 0 0-3.055 2.158c-.913.823-1.38 1.9-1.397 3.23.018 1.72.645 2.98 1.88 3.786 1.203.779 2.703 1.168 4.5 1.168 1.063 0 2.005-.068 2.829-.203.807-.127 1.382-.236 1.724-.326zm6.831-9.346c0-.605.035-1.187.105-1.748a6.578 6.578 0 0 1 .318-1.518c.184-.443.449-.796.793-1.058.326-.28.749-.42 1.268-.42.537 0 .979.14 1.323.42.325.262.572.615.739 1.058.177.461.3.967.37 1.518a27.3 27.3 0 0 1 .054 1.748c.017 1.301-.123 2.414-.424 3.336a2.43 2.43 0 0 1-.739 1.057c-.344.244-.786.365-1.323.365-.519 0-.942-.12-1.268-.365a2.515 2.515 0 0 1-.793-1.057c-.301-.922-.442-2.035-.423-3.336m2.484-6.914c-3.755.082-5.64 2.39-5.658 6.922.018 4.541 1.903 6.847 5.658 6.922 3.755-.075 5.641-2.38 5.659-6.922-.018-4.533-1.904-6.84-5.659-6.922m18.801.623c-1.132-.389-2.382-.596-3.749-.623-1.956 0-3.583.598-4.88 1.791-1.308 1.168-1.97 3.072-1.986 5.715-.02 1.781.445 3.273 1.392 4.478.94 1.203 2.431 1.823 4.474 1.86.973 0 1.784-.127 2.434-.38a3.86 3.86 0 0 0 1.472-1.089c.202-.227.364-.459.487-.693.123-.282.223-.573.301-.87.124-.59.186-1.193.186-1.81h-3.174c0 .67-.114 1.28-.342 1.83-.272.543-.803.822-1.594.84-.808-.018-1.418-.36-1.83-1.029-.422-.688-.633-1.55-.633-2.59 0-.66.1-1.332.302-2.02a6.891 6.891 0 0 1 .894-1.912 4.992 4.992 0 0 1 1.631-1.367c.666-.389 1.485-.584 2.458-.584.842 0 1.56.113 2.157.34zm2.697 12.922h2.984v-13.232h-2.984zm0 5.943h2.984v-3.039h-2.984zm13.818-9.892c.019.463-.114.959-.396 1.488a1.942 1.942 0 0 1-.687.588c-.3.145-.695.219-1.188.219-.87-.02-1.498-.301-1.886-.848-.371-.52-.576-1.002-.612-1.447zm2.506-9.066c-1.044-.354-2.241-.53-3.593-.53-4.27.063-6.424 2.606-6.46 7.627-.016 1.883.413 3.389 1.29 4.52.886 1.113 2.289 1.678 4.21 1.697 3.245-.092 4.867-1.875 4.867-5.35v-.744h-7.6c0-.463.089-1.004.263-1.62.098-.3.208-.608.33-.925.142-.291.305-.593.49-.912a4.78 4.78 0 0 1 1.477-1.482c.635-.428 1.392-.641 2.273-.641 1.023.037 1.84.205 2.453.504zm5.988 6.384c0-.498.034-1.014.104-1.549.053-.545.15-1.039.292-1.482.166-.444.39-.797.67-1.06a1.596 1.596 0 0 1 1.135-.436c.439 0 .799.146 1.08.435.29.264.528.617.712 1.061.325.916.487 1.926.487 3.031 0 1.27-.162 2.34-.487 3.21-.343.87-.94 1.313-1.792 1.331-.484 0-.862-.127-1.134-.38a2.764 2.764 0 0 1-.671-1.034 6.642 6.642 0 0 1-.292-1.453 12.915 12.915 0 0 1-.104-1.674m4.48-4.783h-.065c-.141-.404-.5-.846-1.08-1.322-.586-.495-1.292-.764-2.116-.809-1.675.045-2.832.742-3.472 2.09-.632 1.34-.938 2.95-.921 4.832 0 1.99.36 3.633 1.079 4.926.684 1.312 1.788 1.976 3.314 1.996.482 0 .912-.055 1.289-.164a3.03 3.03 0 0 0 .893-.53c.5-.424.838-.822 1.014-1.193h.065v7.531h2.984V120.85h-2.984zm9.268 1.629c0-1.061.532-1.59 1.597-1.59.484 0 .907.13 1.267.395.326.234.599.55.82.949.211.408.374.834.487 1.277.07.46.106.914.106 1.358-1.029 0-1.975-.166-2.839-.502a2.598 2.598 0 0 1-1.002-.746 1.633 1.633 0 0 1-.436-1.141m4.277-1.916h-.051c-.186-.424-.529-.832-1.03-1.221a3.831 3.831 0 0 0-.974-.42 6.208 6.208 0 0 0-1.345-.203c-1.098.028-1.998.344-2.702.947-.721.633-1.079 1.473-1.079 2.52.016 1.094.315 1.955.895 2.588a4.672 4.672 0 0 0 2.043 1.3c.817.262 1.612.43 2.385.503.791.072 1.41.097 1.858.08v1.304c0 .688-.109 1.262-.329 1.725-.245.453-.736.688-1.472.705-.79-.017-1.321-.244-1.592-.678a2.3 2.3 0 0 1-.382-1.36h-2.902c0 2.733 1.626 4.136 4.876 4.21 3.117-.02 4.666-1.391 4.649-4.113v-9.418h-2.848zm9.241 5.07c0-.498.034-1.014.104-1.549.053-.545.15-1.039.292-1.482.166-.444.39-.797.67-1.06a1.595 1.595 0 0 1 1.135-.436c.439 0 .799.146 1.08.435.29.264.527.617.712 1.061.325.916.487 1.926.487 3.031 0 1.27-.162 2.34-.487 3.21-.343.87-.94 1.313-1.792 1.331-.484 0-.862-.127-1.134-.38a2.764 2.764 0 0 1-.671-1.034 6.642 6.642 0 0 1-.292-1.453 12.915 12.915 0 0 1-.104-1.674m4.48-4.783h-.065c-.141-.404-.5-.846-1.08-1.322-.586-.495-1.292-.764-2.116-.809-1.675.045-2.832.742-3.472 2.09-.632 1.34-.94 2.95-.921 4.832 0 1.99.36 3.633 1.079 4.926.684 1.312 1.788 1.976 3.314 1.996.482 0 .912-.055 1.288-.164.36-.145.659-.32.895-.53.5-.424.837-.822 1.013-1.193h.065v7.531h2.984V120.85h-2.984zm13.789 7.465c.02.463-.114.959-.396 1.488a1.942 1.942 0 0 1-.687.588c-.299.145-.695.219-1.188.219-.869-.02-1.498-.301-1.886-.848-.37-.52-.575-1.002-.612-1.447zm2.505-9.066c-1.043-.354-2.24-.53-3.59-.53-4.272.063-6.426 2.606-6.46 7.627-.018 1.883.411 3.389 1.288 4.52.886 1.113 2.29 1.678 4.21 1.697 3.245-.092 4.867-1.875 4.867-5.35v-.744h-7.6c0-.463.09-1.004.264-1.62.097-.3.207-.608.33-.925.14-.291.304-.593.49-.912a4.773 4.773 0 0 1 1.477-1.482c.634-.428 1.39-.641 2.271-.641 1.024.037 1.842.205 2.453.504zm15.055 2.087h1.27c.529 0 1.053.047 1.573.137.502.072.965.22 1.388.447.415.242.745.586.992 1.03.237.423.358.98.358 1.665-.02 1.256-.398 2.141-1.138 2.657-.776.505-1.834.757-3.173.757h-1.27zm0 8.998h1.262c.492 0 .953.041 1.382.123.412.072.763.2 1.053.381.297.19.529.478.696.87.158.351.237.831.237 1.437 0 .615-.07 1.11-.211 1.48a1.79 1.79 0 0 1-.697.801 2.512 2.512 0 0 1-1.052.422 4.085 4.085 0 0 1-.644.054h-2.026zm-3.146 7.873h5.71c.518 0 1.082-.045 1.695-.135a4.507 4.507 0 0 0 1.719-.638c.535-.299.982-.756 1.34-1.37.342-.607.513-1.394.513-2.363 0-.76-.101-1.396-.302-1.912a3.735 3.735 0 0 0-.826-1.277c-.7-.633-1.356-1.039-1.968-1.22v-.056a5.945 5.945 0 0 0 1.337-.312c.467-.18.898-.457 1.296-.828.414-.352.758-.836 1.032-1.45.256-.589.383-1.359.383-2.308-.018-1.168-.207-2.096-.566-2.783-.378-.723-.882-1.258-1.514-1.602a6.412 6.412 0 0 0-2.001-.732 12.517 12.517 0 0 0-2.12-.19h-5.728zm15.321-5.943h2.983v-2.443h.063c.175.326.38.656.618.99.21.316.46.607.749.869.597.57 1.522.863 2.775.883v-3.231c-2.866.037-4.267-1.463-4.205-4.5v-5.8h-2.982zm12.077-9.785c0-1.061.532-1.59 1.597-1.59.484 0 .907.13 1.267.395.326.234.6.55.82.949.211.408.374.834.488 1.277.07.46.105.914.105 1.358-1.029 0-1.975-.166-2.839-.502a2.606 2.606 0 0 1-1.002-.746 1.633 1.633 0 0 1-.436-1.141m4.277-1.916h-.052c-.185-.424-.528-.832-1.029-1.221a3.816 3.816 0 0 0-.974-.42 6.208 6.208 0 0 0-1.345-.203c-1.098.028-1.998.344-2.702.947-.72.633-1.079 1.473-1.079 2.52.016 1.094.315 1.955.895 2.588a4.672 4.672 0 0 0 2.043 1.3c.817.262 1.612.43 2.385.503.791.072 1.41.097 1.858.08v1.304c0 .688-.109 1.262-.329 1.725-.245.453-.736.688-1.474.705-.788-.017-1.319-.244-1.59-.678a2.3 2.3 0 0 1-.382-1.36h-2.902c0 2.733 1.625 4.136 4.874 4.21 3.12-.02 4.668-1.391 4.652-4.113v-9.418h-2.849zm13.471 8.891c-.177.109-.518.285-1.026.53-.518.218-1.127.335-1.83.355-.483 0-.92-.1-1.315-.3-.456-.226-.685-.534-.685-.923 0-.182.093-.375.277-.584a2.67 2.67 0 0 1 .645-.61c.543-.37 1.18-.787 1.908-1.25a8.342 8.342 0 0 0 1.948-1.615c.552-.623.838-1.41.855-2.361-.017-1.347-.465-2.34-1.342-2.972-.877-.67-2.045-1.004-3.5-1.004-.86.027-1.562.093-2.106.203-.553.125-.982.234-1.289.324v2.662c.21-.072.451-.154.724-.244a4.93 4.93 0 0 1 .775-.287 5.9 5.9 0 0 1 1.763-.272c.43 0 .894.073 1.392.219.52.144.79.47.817.976-.027.39-.307.79-.842 1.198a34.28 34.28 0 0 1-1.906 1.277c-.325.244-.659.502-1 .774-.325.28-.622.58-.895.898a3.306 3.306 0 0 0-.88 2.229c0 1.257.42 2.222 1.262 2.894.825.66 1.938.992 3.342.992a11.747 11.747 0 0 0 1.723-.164 22.71 22.71 0 0 0 1.185-.338zm3.806 2.81h2.983v-13.232h-2.983zm0 5.943h2.983v-3.039h-2.983zm7.193 0h2.983V120.85h-2.983zm13.816-9.892c.02.463-.113.959-.395 1.488a1.95 1.95 0 0 1-.687.588c-.3.145-.695.219-1.188.219-.87-.02-1.498-.301-1.886-.848-.371-.52-.575-1.002-.612-1.447zm2.507-9.066c-1.044-.354-2.241-.53-3.592-.53-4.271.063-6.425 2.606-6.46 7.627-.017 1.883.412 3.389 1.288 4.52.887 1.113 2.29 1.678 4.21 1.697 3.246-.092 4.868-1.875 4.868-5.35v-.744h-7.6c0-.463.089-1.004.264-1.62.097-.3.207-.608.33-.925.14-.291.304-.593.489-.912a4.773 4.773 0 0 1 1.478-1.482c.634-.428 1.39-.641 2.272-.641 1.023.037 1.842.205 2.453.504zm3.736 13.015h2.984v-13.232h-2.984zm0 5.943h2.984v-3.039h-2.984zm7.005-5.943h2.98v-2.443h.064c.176.326.382.656.619.99.21.316.46.607.748.869.598.57 1.523.863 2.776.883v-3.231c-2.866.037-4.267-1.463-4.206-4.5v-5.8h-2.981zm12.076-9.785c0-1.061.532-1.59 1.597-1.59.484 0 .906.13 1.267.395.326.234.599.55.82.949.21.408.374.834.487 1.277.07.46.106.914.106 1.358-1.03 0-1.975-.166-2.84-.502a2.606 2.606 0 0 1-1.001-.746 1.633 1.633 0 0 1-.436-1.141m4.277-1.916h-.052c-.185-.424-.528-.832-1.03-1.221a3.816 3.816 0 0 0-.973-.42 6.208 6.208 0 0 0-1.345-.203c-1.097.028-1.998.344-2.701.947-.722.633-1.08 1.473-1.08 2.52.016 1.094.315 1.955.895 2.588a4.672 4.672 0 0 0 2.043 1.3c.817.262 1.612.43 2.385.503.79.072 1.41.097 1.858.08v1.304c0 .688-.11 1.262-.33 1.725-.245.453-.735.688-1.472.705-.79-.017-1.32-.244-1.591-.678a2.3 2.3 0 0 1-.382-1.36h-2.902c0 2.733 1.625 4.136 4.875 4.21 3.118-.02 4.668-1.391 4.65-4.113v-9.418H516.2zm-194.004-21.045c0-.498.033-1.016.105-1.551a7.123 7.123 0 0 1 .29-1.48c.167-.446.39-.8.67-1.061a1.592 1.592 0 0 1 1.136-.435c.439 0 .799.144 1.08.435.29.262.528.615.712 1.06.325.915.487 1.927.487 3.032 0 1.268-.162 2.338-.487 3.209-.343.869-.94 1.312-1.792 1.332-.484 0-.861-.127-1.135-.381a2.792 2.792 0 0 1-.671-1.033 6.665 6.665 0 0 1-.29-1.455 12.537 12.537 0 0 1-.105-1.672m4.48-4.783h-.065c-.141-.406-.5-.846-1.08-1.322-.587-.495-1.292-.766-2.116-.811-1.675.047-2.832.742-3.472 2.092-.632 1.338-.938 2.949-.921 4.83 0 1.99.36 3.633 1.079 4.928.684 1.31 1.788 1.976 3.314 1.994.482 0 .912-.055 1.289-.162.359-.145.658-.323.894-.53.5-.425.837-.822 1.013-1.193h.065v7.53h2.984V94.734h-2.984zm13.789 7.463c.02.465-.114.96-.396 1.488a1.902 1.902 0 0 1-.687.588c-.299.147-.695.219-1.188.219-.869-.018-1.498-.301-1.887-.848-.37-.517-.574-1-.61-1.447zm2.506-9.066c-1.045-.352-2.242-.53-3.592-.53-4.27.065-6.425 2.608-6.46 7.629-.017 1.88.412 3.387 1.29 4.52.885 1.11 2.288 1.677 4.21 1.695 3.244-.09 4.866-1.873 4.866-5.35v-.744h-7.599c0-.463.088-1.002.263-1.62.096-.298.207-.606.33-.925.141-.29.304-.593.49-.912a4.805 4.805 0 0 1 1.477-1.482c.634-.426 1.391-.64 2.272-.64 1.023.036 1.841.204 2.453.503zm24.047.577a14.71 14.71 0 0 0-.802-.297 7.88 7.88 0 0 0-1.196-.39c-.895-.252-1.916-.393-3.064-.42-2.673.027-4.637.945-5.89 2.755-1.28 1.801-1.921 4.211-1.921 7.235-.018 2.885.547 5.228 1.697 7.03 1.131 1.81 3.007 2.735 5.628 2.782 2.155-.027 3.738-.576 4.746-1.644.999-1.076 1.499-2.385 1.499-3.924h-3.499c0 .391-.017.78-.052 1.17a2.932 2.932 0 0 1-.408 1.058 1.98 1.98 0 0 1-.801.776c-.376.172-.873.258-1.486.258-.806-.018-1.459-.244-1.959-.68-.508-.426-.893-.986-1.156-1.684a9.843 9.843 0 0 1-.565-2.255 17.141 17.141 0 0 1-.171-2.39c-.018-2.32.359-4.214 1.13-5.68.754-1.487 2.065-2.239 3.93-2.257 1.079.018 2.004.223 2.776.612.771.353 1.293.621 1.564.802zm5.624 5.809c0-.605.035-1.19.105-1.75a6.578 6.578 0 0 1 .318-1.518 2.5 2.5 0 0 1 .793-1.056c.326-.281.75-.42 1.267-.42.538 0 .98.139 1.324.42.325.262.572.613.74 1.056.176.46.3.967.37 1.518.035.56.053 1.145.053 1.75.017 1.3-.123 2.412-.424 3.334a2.437 2.437 0 0 1-.739 1.059c-.344.242-.786.365-1.324.365-.518 0-.94-.123-1.267-.365a2.521 2.521 0 0 1-.793-1.06c-.3-.921-.442-2.032-.423-3.333m2.483-6.916c-3.754.082-5.639 2.389-5.657 6.922.018 4.543 1.903 6.849 5.657 6.922 3.756-.073 5.642-2.38 5.66-6.922-.018-4.533-1.904-6.84-5.66-6.922m8.808 13.545h2.99v-2.035h.052c.108.226.244.478.407.76.171.254.398.502.677.746.272.263.603.467.992.61.39.146.856.218 1.4.218.831 0 1.541-.203 2.13-.611.596-.444.995-1.118 1.194-2.022h.067c.2.553.607 1.127 1.222 1.725.606.588 1.438.89 2.497.908 1.005 0 1.855-.34 2.553-1.018.67-.705 1.011-1.818 1.031-3.338v-9.175h-2.986v7.57c0 1.314-.088 2.174-.264 2.582-.204.353-.584.52-1.14.504-.454 0-.852-.147-1.196-.436-.333-.316-.615-.73-.848-1.236a7.983 7.983 0 0 1-.68-3.248v-5.736h-2.984v7.57c0 1.314-.088 2.174-.263 2.582-.205.353-.584.52-1.14.504a1.8 1.8 0 0 1-1.196-.436c-.343-.316-.625-.73-.848-1.236a7.968 7.968 0 0 1-.68-3.248v-5.736h-2.987zm24.212-6.629c-.018-1.242.146-2.3.488-3.168.342-.89.926-1.342 1.753-1.36.528 0 .936.135 1.226.409.281.262.505.605.673 1.033.158.443.254.938.289 1.48a25.3 25.3 0 0 1 0 3.223 5.81 5.81 0 0 1-.316 1.455c-.168.444-.391.807-.673 1.088-.307.254-.708.38-1.199.38a1.37 1.37 0 0 1-.988-.38 3.529 3.529 0 0 1-.738-1.088c-.343-.933-.515-1.957-.515-3.072m-2.982 6.629h2.982v-1.832h.066c.176.426.553.877 1.131 1.357.553.498 1.233.756 2.039.774 1.693-.035 2.859-.72 3.498-2.05.631-1.34.939-2.962.921-4.872 0-1.963-.343-3.592-1.026-4.885-.719-1.312-1.85-1.99-3.393-2.037-.447 0-.85.078-1.21.23a2.999 2.999 0 0 0-.921.473c-.5.422-.845.817-1.039 1.186h-.066v-7.52h-2.982zm21.279-10.776h-.053a3.381 3.381 0 0 0-.408-.824 3.956 3.956 0 0 0-.724-.918 4.748 4.748 0 0 0-1.104-.717c-.448-.207-.97-.31-1.566-.31-.965 0-1.77.353-2.42 1.058-.684.725-1.036 1.828-1.054 3.313v9.173h2.983v-7.57c0-1.305.097-2.15.291-2.54.185-.39.53-.575 1.031-.558.502 0 .941.168 1.32.502.38.32.696.717.951 1.198a7.248 7.248 0 0 1 .753 3.234v5.734h2.983V94.733h-2.983zm14.693-2.539a13.252 13.252 0 0 0-2.46-.23c-.822 0-1.492.105-2.01.312-.524.182-.926.44-1.208.773a3.367 3.367 0 0 0-.538 1.196 5.33 5.33 0 0 0-.171 1.371v7.75h-2.5v2.142h2.5v3.135l2.984 1.86v-4.995h3.798v-2.142h-3.798v-6.258c-.02-.814.096-1.498.342-2.05.132-.28.33-.493.594-.639.273-.19.633-.284 1.082-.284.492 0 .954.077 1.385.231zm4.957 3.529c0-1.058.532-1.587 1.597-1.587.484 0 .907.13 1.267.393.326.236.599.552.82.95.21.407.374.833.488 1.278.07.46.105.914.105 1.358-1.03 0-1.975-.168-2.84-.502a2.61 2.61 0 0 1-1.001-.748 1.63 1.63 0 0 1-.436-1.141m4.277-1.914h-.052c-.185-.426-.528-.832-1.03-1.221a3.747 3.747 0 0 0-.973-.42 6.079 6.079 0 0 0-1.345-.205c-1.098.028-1.998.344-2.701.949-.721.633-1.08 1.473-1.08 2.52.016 1.092.315 1.955.895 2.588a4.693 4.693 0 0 0 2.042 1.3 11.24 11.24 0 0 0 2.385.5c.792.073 1.41.1 1.859.083v1.302c0 .69-.11 1.264-.33 1.725-.244.453-.735.689-1.472.707-.79-.018-1.32-.244-1.592-.68a2.303 2.303 0 0 1-.381-1.357h-2.902c0 2.732 1.625 4.135 4.875 4.207 3.118-.018 4.668-1.39 4.65-4.111v-9.42h-2.848zm10.065-1.424c-2.75.777-4.16 3.139-4.23 7.084-.02 1.783.457 3.275 1.425 4.479.96 1.203 2.485 1.824 4.575 1.859.996 0 1.826-.127 2.488-.381.619-.262 1.123-.625 1.509-1.088.206-.226.372-.457.497-.693.126-.281.228-.571.309-.87.126-.59.189-1.193.189-1.808h-3.176c0 .668-.12 1.277-.361 1.83-.287.54-.848.822-1.682.84-.852-.018-1.496-.361-1.932-1.03-.444-.687-.668-1.55-.668-2.59 0-.66.105-1.333.31-2.02a6.833 6.833 0 0 1 .915-1.911 5.062 5.062 0 0 1 1.667-1.37c.68-.388 1.519-.581 2.513-.581.86 0 1.594.11 2.204.338v-1.885c-1.14-.39-2.398-.598-3.776-.625a7.95 7.95 0 0 0-1.244.096l-.357-1.586c.106.017.234.027.385.027.258 0 .538-.027.84-.082a2.31 2.31 0 0 0 .876-.42c.294-.181.521-.44.68-.775.168-.334.254-.75.254-1.248 0-.795-.263-1.457-.787-1.981-.516-.552-1.32-.838-2.416-.855-.533.017-.968.1-1.303.244-.334.127-.598.24-.787.338v1.75c.288-.172.586-.33.893-.475a2.658 2.658 0 0 1 1.031-.257c.455.025.775.175.961.447.195.244.293.508.293.787-.02.607-.246 1.016-.684 1.223a3.23 3.23 0 0 1-1.408.273c-.234 0-.466-.037-.69-.11zm11.363 3.337c0-1.058.53-1.587 1.597-1.587.483 0 .907.13 1.268.393.325.236.598.552.819.95.21.407.374.833.488 1.278.07.46.105.914.105 1.358-1.03 0-1.975-.168-2.84-.502a2.61 2.61 0 0 1-1.001-.748 1.63 1.63 0 0 1-.436-1.141m-1.178 12.338c-.018 1.269.1 2.22.355 2.85.255.632.737.949 1.447.949.308 0 .632-.096.974-.285.36-.163.71-.373 1.052-.635.36-.217.676-.42.948-.608.263-.2.469-.298.619-.298.192-.018.328.089.408.324.035.244.053.658.053 1.244h1.578c0-1.307-.096-2.266-.29-2.88-.237-.603-.75-.905-1.538-.905-.361 0-.702.09-1.027.27-.36.189-.698.384-1.013.58-.325.245-.615.449-.868.61-.273.153-.49.229-.646.229-.166 0-.285-.094-.354-.283-.071-.2-.106-.586-.106-1.162zm5.455-14.252h-.052c-.185-.426-.528-.832-1.028-1.221a3.784 3.784 0 0 0-.975-.42 6.088 6.088 0 0 0-1.345-.205c-1.098.028-1.998.344-2.701.949-.721.633-1.08 1.473-1.08 2.52.016 1.092.315 1.955.895 2.588a4.69 4.69 0 0 0 2.043 1.3c.817.262 1.612.428 2.385.5.79.073 1.409.1 1.858.083v1.302c0 .69-.11 1.264-.33 1.725-.244.453-.735.689-1.472.707-.79-.018-1.32-.244-1.591-.68a2.297 2.297 0 0 1-.382-1.357h-2.902c0 2.732 1.625 4.135 4.875 4.207 3.118-.018 4.668-1.39 4.65-4.111v-9.42h-2.848zm9.24 5.07c0-.605.035-1.19.105-1.75a6.578 6.578 0 0 1 .318-1.518 2.5 2.5 0 0 1 .793-1.056c.326-.281.75-.42 1.268-.42.537 0 .98.139 1.323.42.324.262.572.613.738 1.056.178.46.301.967.372 1.518.035.56.053 1.145.053 1.75.017 1.3-.122 2.412-.425 3.334a2.435 2.435 0 0 1-.738 1.059c-.344.242-.786.365-1.323.365-.519 0-.942-.123-1.268-.365a2.521 2.521 0 0 1-.793-1.06c-.3-.921-.443-2.032-.423-3.333m2.484-6.916c-3.755.082-5.64 2.389-5.658 6.922.018 4.543 1.903 6.849 5.658 6.922 3.755-.073 5.641-2.38 5.66-6.922-.019-4.533-1.905-6.84-5.66-6.922" fill="#7b7979"/><path d="M332.82 219.964c-5.788 3.055-10.987 6.13-15.376 9.086-1.97 1.512-3.555 3.125-4.794 4.898-1.164 1.39-1.726 2.928-1.726 4.698 0 3.74 1.164 6.338 3.6 7.978 2.319 1.69 5.408 2.547 9.15 2.547 4.66-.09 8.94-.785 12.715-2.066 3.88-1.321 7.406-2.702 10.486-4.108l2.189-1v19l-1.153.305c-1.802.476-4.82 1.045-8.954 1.693-4.276.705-9.225 1.063-14.711 1.063-9.45 0-17.473-2.092-23.85-6.22-6.752-4.397-10.223-11.343-10.316-20.677.094-7.217 2.666-13.152 7.616-17.617 4.575-4.34 9.947-8.135 15.954-11.275 5.785-3.094 10.947-6.366 15.36-9.735 4.209-3.101 6.293-6.97 6.376-11.797 0-2.98-1.005-5.628-3.056-8.078-2.246-2.597-6.3-3.96-12-4.043-5.62.086-10.696 1.246-15.127 3.463-4.408 2.043-8.11 4.02-10.993 5.867l-2.383 1.528V164.2l1.21-.271c1.654-.37 4.92-1.131 9.806-2.285 4.916-1.131 10.564-1.774 16.78-1.914h.036c10.872 0 19.713 2.509 26.27 7.453 6.696 4.998 10.159 12.39 10.303 22.019-.144 7.684-2.668 14.065-7.506 18.96-4.57 4.624-9.918 8.59-15.906 11.802m82.254-36.304c-1.125-2.01-2.637-3.585-4.45-4.653-1.994-1.065-4.213-1.778-6.636-2.125a45.304 45.304 0 0 0-7.777-.672h-4.942v31.123h4.942c6.509 0 11.687-1.22 15.342-3.602 3.38-2.349 5.066-6.383 5.149-12.302 0-3.227-.548-5.838-1.628-7.77m-23.805 63.916h8.808c.979 0 2.005-.086 3.029-.254 1.866-.328 3.462-.963 4.844-1.949 1.268-.772 2.237-1.895 2.919-3.322.648-1.71.976-4.07.976-7.018 0-2.865-.361-5.129-1.085-6.748-.725-1.69-1.723-2.949-2.963-3.738-1.303-.817-2.93-1.4-4.846-1.737-2.095-.396-4.375-.597-6.775-.597h-4.907zm37.176-37.223c-2.164 2.024-4.561 3.553-7.173 4.563-.876.308-1.743.574-2.598.803 2.062 1.17 4.198 2.754 6.398 4.75 1.886 1.851 3.425 4.22 4.582 7.064 1.095 2.81 1.65 6.29 1.65 10.346 0 5.195-.947 9.513-2.83 12.853-1.968 3.371-4.467 5.92-7.372 7.545-2.947 1.815-6.096 2.985-9.38 3.475-3.204.472-6.193.711-8.882.711h-30.752V161.325h30.832c3.525 0 7.259.334 11.123.998 3.83.723 7.437 2.043 10.685 3.908 3.492 1.903 6.31 4.873 8.373 8.83 1.945 3.715 2.978 8.733 3.073 14.942 0 5.045-.704 9.22-2.097 12.424-1.486 3.345-3.398 6.027-5.632 7.925m91.875 22.149v1.549c0 8.232-2.718 15.334-8.086 21.123-5.429 5.752-13.966 8.74-25.419 8.885-13.894-.241-24.008-5.272-30.049-14.94-6.009-9.416-9.008-21.793-8.914-36.773 0-15.705 3.398-28.448 10.088-37.864 6.684-9.646 17.236-14.609 31.371-14.751h.053c5.974.14 11.374.878 15.992 2.183 2.317.568 4.451 1.268 6.25 2.039a76.108 76.108 0 0 1 4.188 1.551l.96.393v18.539l-2.408-1.608c-1.312-.875-3.929-2.213-7.838-4.004-3.712-1.877-8.257-2.871-13.468-2.959-9 .086-15.127 3.58-18.742 10.701-3.807 7.243-5.692 16.762-5.602 28.313 0 3.9.291 7.941.861 12.023.522 3.942 1.465 7.702 2.803 11.188 1.244 3.297 3.082 5.98 5.482 7.992 2.262 1.967 5.297 3.008 8.995 3.09 2.897 0 5.234-.397 6.843-1.123 1.59-.883 2.734-1.981 3.545-3.436a13.428 13.428 0 0 0 1.846-4.726c.174-1.932.264-3.895.264-5.836v-1.549z" fill="#fff"/><path d="M339.132 507.684h-57.979s-.01-54.442 0-82.158c3.731 54.249 57.98 82.158 57.98 82.158" fill="#f3c20a"/><path d="M560.709 403.842c-4.062-5.895-11.552-13.534-21.956-21.142 3.049-4.095 5.49-8.254 7.406-12.427 10.827 16.789 14.996 31.105 14.55 33.569m-195.561-48.615c-14.528 8.44-23.571 15.28-31.42 24.212-3.872-1.88-13.412-7.206-17.64-8.493 2.966 3.693 9.804 10.37 13.57 13.183-39.795 46.955 3.092 95.552 23.865 113.913-54.802-22.571-110.711-134.225-9.41-183.777 78.58-30.053 138.884-16.258 170.792 13.284-3.775 8.373-8.515 15.794-14.031 22.33-35.153-15.688-78.036-20.024-135.726 5.348" fill="#3876c4"/></g></svg>